HIERARCHY
ROOT joint_Root
{
	OFFSET 0.0 0.0 0.0
	CHANNELS 6 Xposition Yposition Zposition Zrotation Xrotation Yrotation 
	JOINT Hips
	{
		OFFSET -17.1583 93.1646 452.98
		CHANNELS 6 Xposition Yposition Zposition Zrotation Xrotation Yrotation 
		JOINT Spine
		{
			OFFSET 15.7357 0.0 0.0
			CHANNELS 6 Xposition Yposition Zposition Zrotation Xrotation Yrotation 
			JOINT Chest
			{
				OFFSET 8.98455 -0.406207 0.0
				CHANNELS 6 Xposition Yposition Zposition Zrotation Xrotation Yrotation 
				JOINT Neck
				{
					OFFSET 16.3773 0.0 0.0
					CHANNELS 6 Xposition Yposition Zposition Zrotation Xrotation Yrotation 
					JOINT Head
					{
						OFFSET 6.45672 0.0 0.0
						CHANNELS 6 Xposition Yposition Zposition Zrotation Xrotation Yrotation 
						End Site
						{
							OFFSET 0.0 0.0 0.0
						}
					}
				}
				JOINT Shoulder_L
				{
					OFFSET 12.9942 -0.242716 4.98039
					CHANNELS 6 Xposition Yposition Zposition Zrotation Xrotation Yrotation 
					JOINT UpperArm_L
					{
						OFFSET 5.34809 0.0 0.0
						CHANNELS 6 Xposition Yposition Zposition Zrotation Xrotation Yrotation 
						JOINT LowerArm_L
						{
							OFFSET 24.3286 1.87007e-05 0.0
							CHANNELS 6 Xposition Yposition Zposition Zrotation Xrotation Yrotation 
							JOINT Hand_L
							{
								OFFSET 22.2916 0.0 0.0
								CHANNELS 6 Xposition Yposition Zposition Zrotation Xrotation Yrotation 
								End Site
								{
									OFFSET 0.0 0.0 0.0
								}
							}
						}
					}
				}
				JOINT Shoulder_R
				{
					OFFSET 12.9945 -0.242716 -4.98039
					CHANNELS 6 Xposition Yposition Zposition Zrotation Xrotation Yrotation 
					JOINT UpperArm_R
					{
						OFFSET -5.34813 0.0 0.0
						CHANNELS 6 Xposition Yposition Zposition Zrotation Xrotation Yrotation 
						JOINT LowerArm_R
						{
							OFFSET -24.3289 0.000322201 0.0
							CHANNELS 6 Xposition Yposition Zposition Zrotation Xrotation Yrotation 
							JOINT Hand_R
							{
								OFFSET -22.2915 -0.000108084 0.0
								CHANNELS 6 Xposition Yposition Zposition Zrotation Xrotation Yrotation 
								End Site
								{
									OFFSET 0.0 0.0 0.0
								}
							}
						}
					}
				}
			}
		}
		JOINT UpperLeg_L
		{
			OFFSET -2.19248 -6.46944 0.0
			CHANNELS 6 Xposition Yposition Zposition Zrotation Xrotation Yrotation 
			JOINT LowerLeg_L
			{
				OFFSET 39.0811 0.0 -1.23785e-05
				CHANNELS 6 Xposition Yposition Zposition Zrotation Xrotation Yrotation 
				JOINT Foot_L
				{
					OFFSET 40.9854 0.0 -1.26872e-05
					CHANNELS 6 Xposition Yposition Zposition Zrotation Xrotation Yrotation 
					JOINT Toes_L
					{
						OFFSET 11.7543 0.0 0.0
						CHANNELS 6 Xposition Yposition Zposition Zrotation Xrotation Yrotation 
						End Site
						{
							OFFSET 0.0 0.0 0.0
						}
					}
				}
			}
		}
		JOINT UpperLeg_R
		{
			OFFSET -2.19251 6.46944 0.0
			CHANNELS 6 Xposition Yposition Zposition Zrotation Xrotation Yrotation 
			JOINT LowerLeg_R
			{
				OFFSET -39.0811 -0.00228153 -0.0401928
				CHANNELS 6 Xposition Yposition Zposition Zrotation Xrotation Yrotation 
				JOINT Foot_R
				{
					OFFSET -40.9854 0.0 0.0
					CHANNELS 6 Xposition Yposition Zposition Zrotation Xrotation Yrotation 
					JOINT Toes_R
					{
						OFFSET -11.7543 0.0 0.0
						CHANNELS 6 Xposition Yposition Zposition Zrotation Xrotation Yrotation 
						End Site
						{
							OFFSET 0.0 0.0 0.0
						}
					}
				}
			}
		}
	}
}
MOTION
Frames:	5
Frame Time:	0.0333333
0.000000 0.000000 0.000000 0.000000 0.000000 -0.000000 -0.193257 93.446000 -1.955450 87.367800 4.897300 0.502644 15.735700 0.000005 -0.000001 72.749000 85.917700 -78.829500 8.984550 -0.406207 -0.000000 -0.045716 -2.007400 -12.154500 16.377300 -0.000001 -0.000001 2.063770 0.562063 -11.039800 6.456720 -0.000001 -0.000000 -18.767600 3.749550 -11.655100 12.994200 -0.242716 4.980390 -92.739600 7.110510 -68.864800 5.348090 -0.000007 -0.000001 -61.015700 -13.275200 2.232220 24.328600 0.000019 0.000005 11.105600 27.360400 -23.127900 22.291600 -0.000001 0.000005 1.263090 4.960050 8.157900 12.994500 -0.242716 -4.980390 91.920300 -3.313460 -59.883000 -5.348130 -0.000001 -0.000004 -44.765500 -60.359500 -68.075300 -24.328900 0.000322 -0.000009 -0.001023 -33.419000 -0.000196 -22.291500 -0.000108 -0.000004 18.446400 4.871860 9.910560 -2.192480 -6.469440 -0.000000 -173.402000 -12.251000 -4.087690 39.081100 -0.000007 -0.000012 -0.030077 0.102547 16.346400 40.985400 -0.000006 -0.000013 0.632083 18.551100 -67.327800 11.754300 -0.000000 0.000003 -0.001906 0.195165 -8.658880 -2.192510 6.469440 -0.000001 177.142000 13.811100 -177.788000 -39.081100 -0.002282 -0.040193 0.000794 0.020040 7.250450 -40.985400 0.000008 0.000006 -10.113400 8.263620 -62.336300 -11.754300 -0.000006 -0.000006 -0.009606 0.268336 -5.672400
0.000000 0.000000 0.000000 0.000000 0.000000 -0.000000 -0.085853 93.451400 -1.883310 87.397900 4.549220 0.354702 15.735700 0.000005 -0.000001 72.102500 86.043000 -77.913200 8.984550 -0.406207 -0.000000 -0.310698 -2.023050 -11.620700 16.377300 -0.000001 -0.000001 1.813080 0.714217 -10.615100 6.456720 -0.000001 -0.000000 -18.183000 3.999670 -11.884000 12.994200 -0.242716 4.980390 -92.643600 6.883690 -68.931600 5.348090 -0.000007 -0.000001 -61.337900 -12.942400 3.095680 24.328600 0.000019 0.000005 10.862300 28.271400 -22.054300 22.291600 -0.000001 0.000005 0.538421 4.943940 8.490070 12.994500 -0.242716 -4.980390 91.905300 -3.305570 -60.017500 -5.348130 -0.000001 -0.000004 -50.003700 -61.515300 -73.767500 -24.328900 0.000322 -0.000009 -0.001255 -38.418300 -0.000235 -22.291500 -0.000108 -0.000004 22.696800 4.855600 10.263400 -2.192480 -6.469440 -0.000000 -173.536000 -12.332200 -4.054860 39.081100 -0.000007 -0.000012 -0.026424 0.090619 16.256200 40.985400 -0.000006 -0.000013 0.670805 18.266000 -67.459100 11.754300 -0.000000 0.000003 -0.002033 0.196753 -8.594290 -2.192510 6.469440 -0.000001 177.059000 13.605300 -177.829000 -39.081100 -0.002282 -0.040193 0.001279 0.016633 7.075230 -40.985400 0.000008 0.000006 -10.186200 8.405050 -62.239100 -11.754300 -0.000006 -0.000006 -0.009818 0.269941 -5.606750
0.000000 0.000000 0.000000 0.000000 0.000000 -0.000000 0.027092 93.470400 -1.815060 87.517600 4.371540 0.182644 15.735700 0.000005 -0.000001 71.357700 86.153400 -76.876300 8.984550 -0.406207 -0.000000 -0.551427 -2.059040 -11.041600 16.377300 -0.000001 -0.000001 1.689620 0.633599 -9.980810 6.456720 -0.000001 -0.000000 -17.752300 4.083370 -12.122900 12.994200 -0.242716 4.980390 -92.591400 6.767280 -68.988800 5.348090 -0.000007 -0.000001 -61.478000 -12.948600 3.563050 24.328600 0.000019 0.000005 10.749100 29.488200 -21.089800 22.291600 -0.000001 0.000005 -0.213248 4.927970 8.815860 12.994500 -0.242716 -4.980390 92.000500 -3.460350 -59.942000 -5.348130 -0.000001 -0.000004 -53.343100 -62.827900 -79.189900 -24.328900 0.000322 -0.000009 -0.001180 -39.548800 -0.000244 -22.291500 -0.000108 -0.000004 25.446100 4.952370 8.322860 -2.192480 -6.469440 -0.000000 -173.756000 -12.267600 -3.969120 39.081100 -0.000007 -0.000012 -0.021284 0.074702 15.903200 40.985400 -0.000006 -0.000013 0.658216 18.046600 -67.318900 11.754300 -0.000000 0.000003 -0.002011 0.196489 -8.605040 -2.192510 6.469440 -0.000001 176.906000 13.393600 -177.933000 -39.081100 -0.002282 -0.040193 0.002003 0.010962 6.976210 -40.985400 0.000008 0.000006 -10.298600 8.299240 -62.172700 -11.754300 -0.000006 -0.000006 -0.009795 0.269769 -5.613820
0.000000 0.000000 0.000000 0.000000 0.000000 -0.000000 0.114104 93.489800 -1.768190 87.725500 4.422760 0.057983 15.735700 0.000005 -0.000001 70.224500 86.231900 -75.462000 8.984550 -0.406207 -0.000000 -0.751311 -2.160730 -10.484600 16.377300 -0.000001 -0.000001 1.757680 0.417332 -9.318940 6.456720 -0.000001 -0.000000 -17.457800 4.185070 -12.436800 12.994200 -0.242716 4.980390 -92.611400 6.827950 -69.012100 5.348090 -0.000007 -0.000001 -61.288900 -13.076300 3.946890 24.328600 0.000019 0.000005 10.668000 29.897100 -20.702600 22.291600 -0.000001 0.000005 -0.134382 4.909800 9.181600 12.994500 -0.242716 -4.980390 92.202400 -3.784530 -59.772600 -5.348130 -0.000001 -0.000004 -53.303900 -64.232000 -82.333200 -24.328900 0.000322 -0.000009 -0.000733 -38.874000 -0.000239 -22.291500 -0.000108 -0.000004 26.432700 5.078630 5.602110 -2.192480 -6.469440 -0.000000 -174.043000 -12.236500 -3.815560 39.081100 -0.000007 -0.000012 -0.016063 0.058028 15.472100 40.985400 -0.000006 -0.000013 0.666411 18.071300 -67.204100 11.754300 -0.000000 0.000003 -0.001845 0.194385 -8.690590 -2.192510 6.469440 -0.000001 176.690000 13.158400 -177.977000 -39.081100 -0.002282 -0.040193 0.002580 0.006282 6.937260 -40.985400 0.000008 0.000006 -10.270100 8.021100 -62.302700 -11.754300 -0.000006 -0.000006 -0.009930 0.270778 -5.572550
0.000000 0.000000 0.000000 0.000000 0.000000 -0.000000 0.171745 93.489600 -1.699720 87.920100 4.559700 -0.017238 15.735700 0.000005 -0.000001 69.264100 86.302200 -74.208600 8.984550 -0.406207 -0.000000 -0.926983 -2.243540 -9.903420 16.377300 -0.000001 -0.000001 2.039530 0.148448 -8.715970 6.456720 -0.000001 -0.000000 -17.152700 4.266970 -12.891300 12.994200 -0.242716 4.980390 -92.667300 6.994580 -69.065400 5.348090 -0.000007 -0.000001 -60.951600 -13.364700 4.234220 24.328600 0.000019 0.000005 10.575700 29.643300 -20.680900 22.291600 -0.000001 0.000005 0.804259 4.905990 9.258260 12.994500 -0.242716 -4.980390 92.430200 -4.141100 -59.557000 -5.348130 -0.000001 -0.000004 -53.227400 -65.985400 -85.647100 -24.328900 0.000322 -0.000009 -0.000916 -38.003900 -0.000231 -22.291500 -0.000108 -0.000004 26.272700 5.189230 2.980710 -2.192480 -6.469440 -0.000000 -174.275000 -12.247200 -3.722840 39.081100 -0.000007 -0.000012 -0.012819 0.047056 15.237700 40.985400 -0.000006 -0.000013 0.702902 18.251200 -67.175000 11.754300 -0.000000 0.000003 -0.001909 0.195200 -8.657440 -2.192510 6.469440 -0.000001 176.503000 12.703900 -177.993000 -39.081100 -0.002282 -0.040193 0.003130 0.001754 6.957860 -40.985400 0.000008 0.000006 -10.352400 7.516430 -62.473700 -11.754300 -0.000006 -0.000006 -0.009869 0.270320 -5.591270
